<?xml version="1.0" encoding="UTF-8"?>
<svg width="100px" height="80px" viewBox="0 0 100 80" version="1.1" xmlns="http://www.w3.org/2000/svg" xmlns:xlink="http://www.w3.org/1999/xlink">
    <title>logo_20cs</title>
    <g id="logo_20cs" stroke="none" stroke-width="1" fill="none" fill-rule="evenodd">
        <g transform="translate(0.000000, -0.000200)" fill="#FEFEFE" id="Combined-Shape">
            <path d="M80.095,57.6224516 C83.631,58.8126724 86.834,60.2243761 90.454,61.3657111 C90.85,61.5563186 90.9024404,61.3479879 90.9051155,61.0891981 L90.9021592,60.8732706 C90.9009695,60.7549101 90.9060526,60.6457606 90.945,60.5785491 C91.123,60.1236114 91.564,60.027835 91.928,59.849252 C93.112,59.422249 94.807,59.5968414 95.594,60.7321903 L95.594,60.7321903 L95.622,72.0457731 L100,72.7281797 L100,75.0816843 L24.172,66.4658024 C21.567,65.9889159 18.021,66.1335781 15.921,67.4993889 C14.222,68.6157821 13.023,70.5323071 13.433,72.6553498 C13.707,74.1927599 15.086,75.4538153 16.439,76.0564083 C17.152,76.4165673 17.543,76.6170991 18.487,76.9702744 C18.998,77.3244474 17.919,77.2725686 17.543,77.4252121 L17.543,77.4252121 L0,80.0001995 L0,78.2592646 L4.924,77.5519163 L4.924,64.9214085 C4.97,63.9616495 5.938,63.5595884 6.99,63.5595884 C8.29,63.5595884 9.228,64.0664049 9.228,64.8016881 L9.228,64.8016881 L9.228,76.9213886 L13.707,76.2629261 C12.107,74.6516883 11.149,72.3999461 11.694,70.0494346 C12.28,67.4993889 14.861,65.4511715 17.253,65.0261639 L17.253,65.0261639 L33.714,63.0298254 L78.266,57.727207 Z M79.376,60.3011967 L33.498,65.2296887 L90.895,71.5938284 L90.895,64.1961021 L79.376,60.3011967 Z M87.917,0 L93.035,53.3105199 C93.112,53.8352946 93.063,54.5496266 92.375,54.7222236 C91.835,54.9277437 91.487,54.5496266 91.314,54.1924606 L91.314,54.1924606 L89.799,47.6148194 L79.564,43.5513077 L75.534,44.2277283 C76.574,44.349444 77.503,44.7564936 78.281,45.4468815 L78.281,45.4468815 L76.808,48.0118922 C75.87,47.2097652 74.534,47.2835928 73.559,47.4382317 C72.624,47.5868846 72.263,48.1116593 72.262,48.7012825 C72.261,49.4126215 72.931,49.5552884 74.149,49.6570508 C75.978,49.8545895 78.463,50.0281842 78.457,53.1648601 C78.455,54.3361251 78.168,55.3737024 77.616,56.2127432 L77.616,56.2127432 L69.507,57.2203904 C69.354,57.0886979 69.208,56.949024 69.071,56.8003711 L69.071,56.8003711 L70.413,54.2433418 C71.186,55.1093197 72.512,55.4056279 74.008,55.2080891 C74.985,55.0803873 75.586,54.4867734 75.587,53.8283109 C75.589,53.0461373 74.873,52.8376241 73.699,52.6949573 C71.898,52.5014092 69.49,52.3966538 69.496,49.2150828 C69.497,48.7940659 69.548,48.3760419 69.649,47.9699901 L69.649,47.9699901 L64.371,46.3816987 C66.463,47.0261938 67.895,49.1342715 67.89,52.1661919 C67.886,54.3620646 67.129,56.2915592 65.915,57.6653514 L65.915,57.6653514 L58.193,58.6251104 C57.06,57.5845401 56.369,55.9214235 56.372,53.8392853 C56.375,52.0095577 56.914,50.3474387 57.817,49.0414881 L57.817,49.0414881 L54.424,47.7684606 L54.393,47.7744467 L54.373,59.0990038 L51.928,59.4022956 L51.943,50.940055 L47.037,49.4645004 C48.767,50.056119 49.894,51.8998139 49.889,54.7621304 C49.886,56.8991405 49.252,58.6570358 48.213,59.8632194 L48.213,59.8632194 L41.277,60.7252066 L41.293,51.0687545 L39.273,50.3105249 L39.252,50.3135179 L39.241,57.024847 C39.238,58.5592641 38.916,60.0088793 38.241,61.1023261 L38.241,61.1023261 L32.505,61.8136651 C31.865,60.9127687 31.565,59.594846 31.568,58.1362519 L31.568,58.1362519 L31.577,52.4814558 L29.948,51.8748722 L29.946,51.8748722 L30.225,54.5446383 L28.033,54.8918276 L28.02,62.3713629 L26.028,62.6177875 L26.041,55.2060938 L23.911,55.5423087 L24.048,54.200442 L21.563,53.4521891 C22.124,53.6237885 22.633,53.9540174 23.07,54.4478642 L23.07,54.4478642 L22.098,56.495084 C21.478,55.8216564 20.595,55.8495912 19.949,55.9513536 C19.328,56.050123 19.089,56.4691445 19.088,56.9500217 C19.087,57.5296682 19.532,57.6603631 20.339,57.7721021 C21.55,57.9736316 23.189,58.1711703 23.184,60.7172253 C23.183,61.6011613 23.018,62.3853303 22.703,63.030823 L22.703,63.030823 L17.149,63.7202133 C17.085,63.645388 17.022,63.5685674 16.963,63.4887538 L16.963,63.4887538 L17.857,61.4275666 C18.372,62.14988 19.252,62.4182534 20.244,62.2875586 C20.891,62.2027566 21.289,61.7318561 21.29,61.1961071 C21.291,60.560591 20.818,60.376022 20.04,60.2353505 C18.845,60.0388094 17.243,59.9021285 17.248,57.3041947 C17.249,56.425247 17.473,55.5672505 17.906,54.8738695 L17.906,54.8738695 L16.106,54.1964513 L16.078,51.8798605 L79.564,40.6810098 L89.071,44.4551971 L85.826,30.3780672 L79.836,28.0455137 L75.293,36.8240159 L75.287,40.2639836 L72.582,40.7448608 L72.588,37.3388139 L69.283,32.1429462 L66.277,31.2380591 L66.265,31.2390568 C66.69,31.3507959 67.046,31.5423486 67.327,31.819701 C67.624,32.1120184 67.848,32.4751705 67.999,32.9091571 C68.15,33.3441414 68.225,34.0774292 68.224,34.6101852 C68.222,35.5639582 68.017,36.6264772 67.611,37.2979094 C67.25,37.892521 66.739,38.516065 66.078,38.8981728 L66.078,38.8981728 L67.895,41.5779156 L64.83,42.1226436 L63.173,39.6554046 L63.168,42.4189517 L60.598,42.8748871 L60.615,33.0917308 L58.92,32.4562147 L58.907,39.6434326 C58.905,41.0940454 58.72,42.3401358 58.163,43.3078761 L58.163,43.3078761 L51.513,44.4901156 C50.982,43.7358767 50.809,42.5945417 50.811,41.2097752 L50.811,41.2097752 L50.823,34.9234537 L49.526,34.4365906 L49.717,37.09638 L47.194,37.6091826 L47.181,45.2603172 L44.898,45.666369 L44.911,38.074097 L42.426,38.5799159 L42.563,36.6613956 L41.349,36.2064579 L41.332,46.3008874 L38.484,46.8067063 L34.633,42.4239401 L34.624,47.4931036 L32.443,47.8801997 L32.459,39.0418373 L30.733,38.3943492 L31.137,40.8027256 L26.581,41.7315568 L26.578,43.5892192 L30.305,42.8519407 L30.301,45.3281587 L26.574,46.0385001 L26.571,47.955025 L31.178,47.1050098 L31.009,48.1356034 L24.491,49.2938987 L24.506,41.1968055 L22.053,40.4734944 C22.658,40.6650471 23.172,41.0102411 23.55,41.3913512 L23.55,41.3913512 L22.548,43.5872238 C22.01,42.9537031 21.249,42.8898522 20.588,43.0245377 C19.369,43.27196 18.478,44.6118314 18.475,46.3038804 C18.472,47.9939342 19.414,48.9287514 20.634,48.7012825 C21.358,48.5675947 22.086,48.0218689 22.541,47.3973272 L22.541,47.3973272 L23.536,49.2051061 C23.465,49.3048731 23.388,49.4046402 23.309,49.5044072 L23.309,49.5044072 L17.693,50.5030753 C16.924,49.6710182 16.445,48.3481072 16.448,46.6790045 C16.451,44.9031511 16.966,43.3158575 17.797,42.1705318 L17.797,42.1705318 L15.995,41.4921159 L15.995,39.3451291 L80.162,24.8789078 L85.018,26.8991904 L83.24,19.2710022 L78.83,17.4003701 L78.83,23.7405658 L76.546,24.1955035 L76.546,19.8277023 C76.5405652,19.6665569 76.5529471,19.4882492 76.5666871,19.3099477 L76.5827737,19.0970876 C76.6217921,18.5353287 76.6073043,18.0439543 76,18.1855368 C75.639,18.1855368 75.023,18.6404745 74.973,19.0155986 L74.973,19.0155986 L74.973,24.6235041 L72.436,25.1772112 L72.436,15.1057281 L62.172,10.6611063 L61.485,10.5074651 C62.394,11.894227 62.958,13.4416138 63.279,15.0777934 C63.896,20.9131678 60.942,25.6840278 56.265,28.9454125 L56.265,28.9454125 L47.434,31.0644645 C44.499,31.3448099 41.694,30.2553537 39.696,27.9547257 C37.362,25.1033836 37.164,20.7076476 38.271,17.1729013 L38.271,17.1729013 L36.301,16.2191283 C39.132,23.3095721 30.076,28.6401253 29.17,31.1662269 L29.17,31.1662269 L36.795,29.5200706 L36.795,33.5127477 L18.086,37.9114767 L18.086,35.334494 L28.06,23.9869904 C29.533,22.3248714 31.408,20.9131678 30.835,19.2490535 C30.619,18.6674116 29.999,18.3850709 29.512,18.2094809 C27.958,17.9111774 26.672,18.5666469 25.569,19.5194221 C24.733,20.3594607 24.366,21.4459238 24.314,21.9966379 L24.314,21.9966379 L18.24,23.3833998 C18.462,21.7990991 18.733,20.6587618 19.27,19.3997017 C20.944,15.7861394 24.61,13.0295759 28.353,12.5067966 C32.441,11.8174064 35.225,14.5769628 38.789,15.8140741 C40.411,12.9308066 43.149,9.90088144 45.998,8.33254351 C49.747,6.01295974 55.232,6.1426569 59.219,7.82772227 L59.219,7.82772227 L71.456,13.1063966 L72.51,13.4885043 L72.51,9.92283019 L74.949,8.815416 L81.547,11.9989824 L78.821,0.0219487497 L87.917,0 Z M5.11361078,57.3904051 L5.1921,57.400869 C6.9891,57.6223518 8.6171,58.0343897 10.3591,58.4314625 C10.8311,58.5821108 10.5381,59.1667456 10.4051,59.5478558 C9.9641,60.6313259 8.8881,61.3656113 7.7721,61.38756 C6.6191,61.4923154 5.6081,61.0613218 5.0441,59.7204527 C4.6491,58.735752 4.5321,57.2502207 5.1921,57.400869 Z M33.701,51.2553188 L33.6899942,57.5236822 C33.688,58.9144348 34.2,60.1565345 35.347,60.0048886 C36.493,59.852245 37.022,58.4535111 37.024,57.0448004 L37.024,57.0448004 L37.032,52.5044022 L33.701,51.2553188 Z M47.5350132,55.1043314 C47.539,53.1898018 46.634,51.9546858 44.993,52.2130825 L44.993,52.2130825 L43.544,52.4425467 L43.533,58.9473579 L44.968,58.7568029 C46.541,58.5472921 47.532,56.9450333 47.5350132,55.1043314 Z M94.8072,55.0967491 C95.5172,54.9740356 95.4732,55.1985115 95.4462,55.5586705 C95.7452,56.8935536 94.7862,58.3850709 93.4292,58.763188 C91.5082,59.1662468 90.2532,58.1296672 89.7912,56.6411429 C89.6402,56.1891982 89.8372,56.0565081 90.3282,55.9617294 C91.8042,55.7372535 93.3282,55.4080223 94.8072,55.0967491 Z M19.704,0.0219487497 L9.228,55.9124444 C9.055,56.4691445 8.395,56.7425062 7.877,56.6167998 C7.378,56.416268 7.137,56.0840438 7.137,55.3796884 L7.137,55.3796884 L9.613,0.0219487497 L19.704,0.0219487497 Z M64.9340059,52.5951902 C64.937,50.4352337 63.789,49.1831573 62.026,49.4625051 C60.268,49.7398574 59.154,51.3201674 59.1499892,53.4362264 C59.146,55.532332 60.256,56.8083525 62.013,56.5758953 C63.777,56.3424404 64.93,54.736191 64.9340059,52.5951902 Z M34.257,37.6450987 L34.215,37.6540777 L39.081,43.4764824 L39.088,39.4568682 L34.257,37.6450987 Z M53.187,33.675368 L53.1749871,40.4106412 C53.173,41.8223448 53.402,42.7990642 54.817,42.5366769 C56.228,42.2752872 56.396,41.2167589 56.399,39.7920855 L56.399,39.7920855 L56.407,34.8835469 L53.187,33.675368 Z M65.3,34.2500262 C65.021,34.014576 64.743,34.0375224 63.927,34.2041333 L63.927,34.2041333 L63.182,34.3557793 L63.177,36.9976106 L63.922,36.8519507 C64.753,36.6883327 64.988,36.5935541 65.251,36.2852739 C65.458,36.0418423 65.655,35.6357904 65.656,35.1399482 C65.656,34.6451037 65.508,34.4266139 65.3,34.2500262 Z M71.158,29.8722483 L71.143,29.8752413 L73.922,34.2061287 L75.358,31.4475699 L71.158,29.8722483 Z M68.3259,16.0382507 L68.3259,18.4615922 L70.3209,17.9577686 L70.3209,20.1536412 L68.3259,20.5906209 L68.3259,26.1675987 L66.0409,26.693371 L66.0409,16.567016 L68.3259,16.0382507 Z M53.089,12.2733417 C50.45,11.8702829 48.193,12.9806901 46.272,14.6448044 C44.302,16.4934877 43.053,18.9667127 43.614,21.7442272 C44.031,23.6388034 46.029,25.0564931 47.749,25.3827313 C50.943,25.7857902 53.9,24.4509071 55.944,21.7442272 C57.227,19.9783506 57.939,17.2497219 56.835,15.1526186 C56.018,13.6630967 54.689,12.5496965 53.089,12.2733417 Z M75.097,10.2799962 L75.097,16.4685459 C75.532,15.8140741 76.055,15.6045633 76.715,15.6045633 C77.332,15.5796216 78.192,15.86296 78.907,16.1642565 L78.907,16.1642565 L82.916,17.9331262 L81.914,13.5403832 L75.097,10.2799962 Z"></path>
        </g>
    </g>
</svg>